<svg version="1.1" xmlns="http://www.w3.org/2000/svg" xmlns:xlink="http://www.w3.org/1999/xlink" width="366.1896" height="172.0263" viewBox="0,0,366.1896,172.0263"><defs><linearGradient x1="280" y1="153.32355" x2="280" y2="188.58395" gradientUnits="userSpaceOnUse" id="color-1"><stop offset="0" stop-color="#cccccc"/><stop offset="1" stop-color="#666666"/></linearGradient><linearGradient x1="97" y1="232.32355" x2="97" y2="267.58395" gradientUnits="userSpaceOnUse" id="color-2"><stop offset="0" stop-color="#cccccc"/><stop offset="1" stop-color="#666666"/></linearGradient><linearGradient x1="404.32355" y1="148" x2="439.58395" y2="148" gradientUnits="userSpaceOnUse" id="color-3"><stop offset="0" stop-color="#cccccc"/><stop offset="1" stop-color="#666666"/></linearGradient><linearGradient x1="144.67645" y1="285" x2="109.41606" y2="285" gradientUnits="userSpaceOnUse" id="color-4"><stop offset="0" stop-color="#cccccc"/><stop offset="1" stop-color="#666666"/></linearGradient><linearGradient x1="412.32355" y1="210" x2="447.58395" y2="210" gradientUnits="userSpaceOnUse" id="color-5"><stop offset="0" stop-color="#cccccc"/><stop offset="1" stop-color="#666666"/></linearGradient></defs><g transform="translate(-79.48685,-130.48685)"><g stroke="none" stroke-width="0" stroke-miterlimit="10"><path d="M262.48685,186.67644l17.51315,-33.35288l17.51315,33.35289l-17.51314,-0.00006z" fill="url(#color-1)"/><path d="M79.48685,265.67644l17.51315,-33.35288l17.51315,33.35289l-17.51314,-0.00006z" fill="url(#color-2)"/><path d="M437.67644,165.51315l-33.35288,-17.51315l33.35289,-17.51315l-0.00006,17.51314z" fill="url(#color-3)"/><path d="M111.32356,267.48685l33.35288,17.51315l-33.35289,17.51315l0.00006,-17.51314z" fill="url(#color-4)"/><path d="M445.67644,227.51315l-33.35288,-17.51315l33.35289,-17.51315l-0.00006,17.51314z" fill="url(#color-5)"/></g></g></svg>