<svg version="1.1" xmlns="http://www.w3.org/2000/svg" xmlns:xlink="http://www.w3.org/1999/xlink" width="78.69683" height="78.69683" viewBox="0,0,78.69683,78.69683"><g transform="translate(-200.65158,-140.65159)"><g stroke="#000000" stroke-miterlimit="10"><path d="M240,218.56829l-13.04755,-38.56828l13.04755,-38.56828l13.04755,38.56828z" fill="#999999" stroke-width="0.5"/><path d="M212.72812,207.2719l18.04588,-36.4979l36.4979,-18.04587l-18.04587,36.4979z" fill="#999999" stroke-width="0.5"/><path d="M201.43172,180l38.56828,-13.04755l38.56828,13.04755l-38.56828,13.04755z" fill="#999999" stroke-width="0.5"/><path d="M267.2719,207.2719l-36.4979,-18.04587l-18.04587,-36.4979l36.4979,18.04588z" fill="#999999" stroke-width="0.5"/><path d="M215.625,180c0,-13.46193 10.91307,-24.375 24.375,-24.375c13.46193,0 24.375,10.91307 24.375,24.375c0,13.46193 -10.91307,24.375 -24.375,24.375c-13.46193,0 -24.375,-10.91307 -24.375,-24.375z" fill="#4d4d4d" stroke-width="0.5"/><path d="M225.5,180c0,-8.00813 6.49187,-14.5 14.5,-14.5c8.00813,0 14.5,6.49187 14.5,14.5c0,8.00813 -6.49187,14.5 -14.5,14.5c-8.00813,0 -14.5,-6.49187 -14.5,-14.5z" fill="#333333" stroke-width="1"/><path d="M235.5625,180c0,-2.45076 1.98674,-4.4375 4.4375,-4.4375c2.45076,0 4.4375,1.98674 4.4375,4.4375c0,2.45076 -1.98674,4.4375 -4.4375,4.4375c-2.45076,0 -4.4375,-1.98674 -4.4375,-4.4375z" fill="#262626" stroke-width="0.5"/></g></g></svg>