<svg version="1.1" xmlns="http://www.w3.org/2000/svg" xmlns:xlink="http://www.w3.org/1999/xlink" width="64.69053" height="64.69053" viewBox="0,0,64.69053,64.69053"><g transform="translate(-207.65474,-147.65473)"><g stroke="#000000" stroke-width="0.5" stroke-miterlimit="10"><path d="M262.49891,202.49892l-34.62353,-10.37432l-10.37432,-34.62353l34.62353,10.37432z" fill="#999999"/><path d="M240,211.81828l-17.14678,-31.81828l17.14678,-31.81828l17.14678,31.81828z" fill="#999999"/><path d="M217.50108,202.49892l10.37432,-34.62353l34.62353,-10.37432l-10.37432,34.62353z" fill="#999999"/><path d="M208.18172,180l31.81828,-17.14678l31.81828,17.14678l-31.81828,17.14678z" fill="#999999"/><path d="M219.5,180c0,-11.32183 9.17817,-20.5 20.5,-20.5c11.32183,0 20.5,9.17817 20.5,20.5c0,11.32183 -9.17817,20.5 -20.5,20.5c-11.32183,0 -20.5,-9.17817 -20.5,-20.5z" fill="#4d4d4d"/><path d="M229.75,180c0,-5.66092 4.58908,-10.25 10.25,-10.25c5.66092,0 10.25,4.58908 10.25,10.25c0,5.66092 -4.58908,10.25 -10.25,10.25c-5.66092,0 -10.25,-4.58908 -10.25,-10.25z" fill="#262626"/></g></g></svg>