<svg version="1.1" xmlns="http://www.w3.org/2000/svg" xmlns:xlink="http://www.w3.org/1999/xlink" width="54.09367" height="54.09367" viewBox="0,0,54.09367,54.09367"><g transform="translate(-212.95316,-152.95316)"><g stroke="#000000" stroke-width="0.5" stroke-miterlimit="10"><path d="M240,206.69328l-26.69328,-26.69328l26.69328,-26.69328l26.69328,26.69328z" fill="#999999"/><path d="M221.125,198.875v-37.75h37.75v37.75z" fill="#999999"/><path d="M219.5,180c0,-11.32183 9.17817,-20.5 20.5,-20.5c11.32183,0 20.5,9.17817 20.5,20.5c0,11.32183 -9.17817,20.5 -20.5,20.5c-11.32183,0 -20.5,-9.17817 -20.5,-20.5z" fill="#4d4d4d"/><path d="M231.375,180c0,-4.76346 3.86154,-8.625 8.625,-8.625c4.76346,0 8.625,3.86154 8.625,8.625c0,4.76346 -3.86154,8.625 -8.625,8.625c-4.76346,0 -8.625,-3.86154 -8.625,-8.625z" fill="#262626"/></g></g></svg>