<svg version="1.1" xmlns="http://www.w3.org/2000/svg" xmlns:xlink="http://www.w3.org/1999/xlink" width="63.01926" height="63.01926" viewBox="0,0,63.01926,63.01926"><g transform="translate(-208.49038,-148.49038)"><g stroke-miterlimit="10"><path d="M215.63359,180.00002c0,-13.91598 10.90923,-25.19711 24.36643,-25.19711c13.45721,0 24.36643,11.28112 24.36643,25.19711c0,13.91598 -10.90923,25.19711 -24.36643,25.19711c-13.45721,0 -24.36643,-11.28112 -24.36643,-25.19711z" fill="none" stroke="#ff0000" stroke-width="2"/><path d="M208.99038,180.00002c0,-17.12614 13.88348,-31.00963 31.00963,-31.00963c17.12614,0 31.00963,13.88348 31.00963,31.00963c0,17.12614 -13.88348,31.00963 -31.00963,31.00963c-17.12614,0 -31.00963,-13.88348 -31.00963,-31.00963z" fill="none" stroke="#0065ff" stroke-width="1"/><path d="M222.13297,180.00001c0,-9.86769 7.99935,-17.86704 17.86704,-17.86704c9.86769,0 17.86704,7.99935 17.86704,17.86704c0,9.86769 -7.99934,17.86704 -17.86704,17.86704c-9.86769,0 -17.86704,-7.99935 -17.86704,-17.86704z" fill="none" stroke="#000000" stroke-width="1"/><path d="M236.46922,180.00001c0,-1.95 1.58079,-3.53079 3.53079,-3.53079c1.95,0 3.53079,1.58079 3.53079,3.53079c0,1.95 -1.58079,3.53079 -3.53079,3.53079c-1.95,0 -3.53079,-1.58079 -3.53079,-3.53079z" fill="#00ff33" stroke="none" stroke-width="0.5"/></g></g></svg>